<svg id="Layer_1" data-name="Layer 1" xmlns="http://www.w3.org/2000/svg" xmlns:xlink="http://www.w3.org/1999/xlink" viewBox="0 0 329 45"><defs><style>.cls-1{fill:none;stroke-miterlimit:10;stroke-width:3px;stroke:url(#linear-gradient);}.cls-2{fill-rule:evenodd;fill:url(#linear-gradient-2);}.cls-3{fill:url(#linear-gradient-3);}.cls-4{fill:url(#linear-gradient-4);}.cls-5{fill:url(#linear-gradient-5);}.cls-6{fill:url(#linear-gradient-6);}.cls-7{fill:url(#linear-gradient-7);}.cls-8{fill:url(#linear-gradient-8);}.cls-9{fill:url(#linear-gradient-9);}.cls-10{fill:url(#linear-gradient-10);}.cls-11{fill:url(#linear-gradient-11);}.cls-12{fill:url(#linear-gradient-12);}</style><linearGradient id="linear-gradient" x1="251.41" y1="109.41" x2="77.59" y2="-64.41" gradientUnits="userSpaceOnUse"><stop offset="0" stop-color="#e9c156"/><stop offset="0.04" stop-color="#b28639"/><stop offset="0.08" stop-color="#79491c"/><stop offset="0.1" stop-color="#633110"/><stop offset="0.13" stop-color="#6f3c14"/><stop offset="0.18" stop-color="#8d5a1e"/><stop offset="0.25" stop-color="#bf8a2e"/><stop offset="0.29" stop-color="#e1ab39"/><stop offset="0.31" stop-color="#e3b141"/><stop offset="0.41" stop-color="#edcd66"/><stop offset="0.52" stop-color="#f5e384"/><stop offset="0.62" stop-color="#fbf299"/><stop offset="0.72" stop-color="#fefca6"/><stop offset="0.82" stop-color="#ffa"/><stop offset="0.85" stop-color="#fdfaa3"/><stop offset="0.9" stop-color="#f8ec90"/><stop offset="0.96" stop-color="#f0d571"/><stop offset="1" stop-color="#e9c156"/></linearGradient><linearGradient id="linear-gradient-2" x1="32.89" y1="34.81" x2="12.04" y2="13.96" xlink:href="#linear-gradient"/><linearGradient id="linear-gradient-3" x1="208.29" y1="25.49" x2="202.06" y2="19.26" xlink:href="#linear-gradient"/><linearGradient id="linear-gradient-4" x1="219.92" y1="24.83" x2="212.72" y2="17.62" xlink:href="#linear-gradient"/><linearGradient id="linear-gradient-5" x1="229.39" y1="27.31" x2="222.09" y2="20.01" xlink:href="#linear-gradient"/><linearGradient id="linear-gradient-6" x1="244.81" y1="26.86" x2="239.33" y2="21.38" xlink:href="#linear-gradient"/><linearGradient id="linear-gradient-7" x1="251.91" y1="24.94" x2="245.7" y2="18.73" xlink:href="#linear-gradient"/><linearGradient id="linear-gradient-8" x1="262.97" y1="26.82" x2="255.73" y2="19.58" xlink:href="#linear-gradient"/><linearGradient id="linear-gradient-9" x1="276.52" y1="27.39" x2="269.08" y2="19.95" xlink:href="#linear-gradient"/><linearGradient id="linear-gradient-10" x1="286.84" y1="26.86" x2="281.36" y2="21.38" xlink:href="#linear-gradient"/><linearGradient id="linear-gradient-11" x1="300.99" y1="26.86" x2="295.51" y2="21.38" xlink:href="#linear-gradient"/><linearGradient id="linear-gradient-12" x1="309.86" y1="26.82" x2="302.62" y2="19.58" xlink:href="#linear-gradient"/></defs><rect class="cls-1" x="1.5" y="1.5" width="326" height="42" rx="21"/><path class="cls-2" d="M30.07,34.74c-4.76-.17-12.36-3.94-17.56-13-1.85-3.22-1.58-6.88,1.12-9.39.92-.86,2.06-.65,3.14-.47.26,0,.54.45.67.75.69,1.57,1.38,3.15,2,4.77.32.85-.27,1.65-1.5,3.07a1.05,1.05,0,0,0-.17,1.39,16.66,16.66,0,0,0,8.48,7.28,1,1,0,0,0,1.28-.35c1.95-2.38,2.15-3.07,3.18-2.59,4.93,2.36,5.32,2.46,5.34,3C36.2,33.41,32.38,34.91,30.07,34.74Z"/><path class="cls-3" d="M204,27.73a3.06,3.06,0,0,1-1.78-.53,3.39,3.39,0,0,1-1.16-1.46,5.18,5.18,0,0,1-.4-2.1,7.08,7.08,0,0,1,.46-2.58A6.69,6.69,0,0,1,202.39,19a6.12,6.12,0,0,1,1.81-1.42,4.71,4.71,0,0,1,2.14-.51,3,3,0,0,1,1.77.53A3.5,3.5,0,0,1,209.27,19a5.12,5.12,0,0,1,.41,2.13,7.08,7.08,0,0,1-.46,2.58,7.33,7.33,0,0,1-1.26,2.1,6,6,0,0,1-1.81,1.41A4.71,4.71,0,0,1,204,27.73Zm.31-1.48a2.86,2.86,0,0,0,1.41-.37,4,4,0,0,0,1.2-1.06,5.65,5.65,0,0,0,.83-1.58,6,6,0,0,0,.3-1.93,3.51,3.51,0,0,0-.54-2A1.7,1.7,0,0,0,206,18.5a2.87,2.87,0,0,0-1.44.38A3.94,3.94,0,0,0,203.38,20a5.3,5.3,0,0,0-.81,1.57,6.05,6.05,0,0,0-.3,1.93,3.46,3.46,0,0,0,.54,2A1.72,1.72,0,0,0,204.32,26.25Z"/><path class="cls-4" d="M212.3,26.64a4.55,4.55,0,0,1-.91-3,12.72,12.72,0,0,1,.46-3.42,9.8,9.8,0,0,1,1.31-2.87,6.61,6.61,0,0,1,2-2,4.9,4.9,0,0,1,2.6-.72,3.32,3.32,0,0,1,2,.6A3.19,3.19,0,0,1,221,17l-1.17.95a2.31,2.31,0,0,0-.82-1.34,2.35,2.35,0,0,0-1.52-.49,2.81,2.81,0,0,0-1.71.59,5.27,5.27,0,0,0-1.43,1.71,10.23,10.23,0,0,0-1,2.7,4.52,4.52,0,0,1,1-1.09,4.1,4.1,0,0,1,1.21-.71,3.75,3.75,0,0,1,1.35-.25,3.24,3.24,0,0,1,1.78.47,3.18,3.18,0,0,1,1.18,1.26,3.73,3.73,0,0,1,.42,1.79,4.55,4.55,0,0,1-.44,2,5.38,5.38,0,0,1-1.2,1.65,6,6,0,0,1-1.73,1.14,5.12,5.12,0,0,1-2,.41A3.11,3.11,0,0,1,212.3,26.64Zm4.12-.57a3.83,3.83,0,0,0,1.14-.79,4,4,0,0,0,.81-1.14,3.18,3.18,0,0,0,.3-1.36,2.72,2.72,0,0,0-.29-1.26,2.35,2.35,0,0,0-.79-.89,2.11,2.11,0,0,0-1.17-.34,3.12,3.12,0,0,0-1.3.29,4,4,0,0,0-1.13.79,3.62,3.62,0,0,0-.8,1.14,3.16,3.16,0,0,0-.3,1.35,2.66,2.66,0,0,0,.29,1.26A2.26,2.26,0,0,0,214,26a2.06,2.06,0,0,0,1.17.33A3,3,0,0,0,216.42,26.07Z"/><path class="cls-5" d="M222.29,29.72a3.25,3.25,0,0,1-1.18-1.67l1.17-.95a2.41,2.41,0,0,0,.83,1.33,2.35,2.35,0,0,0,1.52.51,2.75,2.75,0,0,0,1.71-.62,5.34,5.34,0,0,0,1.43-1.75,10.38,10.38,0,0,0,1-2.73,4.4,4.4,0,0,1-.94,1.08,4.26,4.26,0,0,1-1.21.72,3.72,3.72,0,0,1-1.36.25,3.34,3.34,0,0,1-1.77-.47,3.27,3.27,0,0,1-1.17-1.3,3.79,3.79,0,0,1-.43-1.82,4.83,4.83,0,0,1,.44-2,5.59,5.59,0,0,1,1.21-1.68,5.78,5.78,0,0,1,1.73-1.16,5,5,0,0,1,2-.42,3.09,3.09,0,0,1,2.52,1.11,4.58,4.58,0,0,1,.92,3,12.77,12.77,0,0,1-.46,3.48,10.16,10.16,0,0,1-1.3,2.93,6.78,6.78,0,0,1-2,2,4.76,4.76,0,0,1-2.59.73A3.37,3.37,0,0,1,222.29,29.72Zm4.64-5.4a4.27,4.27,0,0,0,1.14-.8,3.88,3.88,0,0,0,.81-1.18,3.3,3.3,0,0,0,.3-1.38,3,3,0,0,0-.29-1.31,2.37,2.37,0,0,0-.79-.92,2,2,0,0,0-1.17-.34,3.1,3.1,0,0,0-1.28.29,3.93,3.93,0,0,0-1.14.82,4,4,0,0,0-.82,1.17,3.17,3.17,0,0,0-.31,1.39,2.91,2.91,0,0,0,.29,1.29,2.25,2.25,0,0,0,.8.92,2,2,0,0,0,1.16.35A3,3,0,0,0,226.93,24.32Z"/><path class="cls-6" d="M240.9,26.79h-5.44l.31-1.4,7.66-8.12h1.08l-1.72,8.08h1.51L244,26.79h-1.51l-.65,3h-1.58Zm.46-1.44,1.21-5.63-5.17,5.63Z"/><path class="cls-7" d="M253,18.73h-6.16l.31-1.46h8.68L247,29.83h-1.8Z"/><path class="cls-8" d="M254.58,27.55a9.49,9.49,0,0,1,.4-1.37,4.7,4.7,0,0,1,.67-1.22,5.87,5.87,0,0,1,1.08-1.1,9.2,9.2,0,0,1,1.63-1.05c.42-.21.84-.43,1.26-.63a12.56,12.56,0,0,0,1.17-.64,2.94,2.94,0,0,0,.85-.73,1.51,1.51,0,0,0,.32-.95,1.48,1.48,0,0,0-.18-.69,1.39,1.39,0,0,0-.56-.54,2,2,0,0,0-1-.21,2.89,2.89,0,0,0-.94.15,3,3,0,0,0-.81.38,4.32,4.32,0,0,0-.66.48l-.5.45-.78-1.15a4.93,4.93,0,0,1,.58-.44,7.21,7.21,0,0,1,1-.57,6.89,6.89,0,0,1,1.26-.49,5.23,5.23,0,0,1,1.5-.21,3.38,3.38,0,0,1,1.57.33,2.29,2.29,0,0,1,1.31,2.1,2.76,2.76,0,0,1-.36,1.43,4.07,4.07,0,0,1-.91,1.07,9.13,9.13,0,0,1-1.14.77c-.4.21-.75.4-1.07.54s-.58.29-.92.48a9,9,0,0,0-1,.64,5.66,5.66,0,0,0-.9.79,2.89,2.89,0,0,0-.6.94h5.72l-.31,1.44Z"/><path class="cls-9" d="M271.39,30.2a4.29,4.29,0,0,1-2.18-.52A2.76,2.76,0,0,1,268,28.23l1.26-1.06a2.32,2.32,0,0,0,.83,1.15,2.62,2.62,0,0,0,1.62.43,3.64,3.64,0,0,0,1.61-.33,2.38,2.38,0,0,0,1-1,2.94,2.94,0,0,0,.38-1.53,1.87,1.87,0,0,0-.6-1.46,2.52,2.52,0,0,0-1.76-.54h-.45l.29-1.33h.48a3.4,3.4,0,0,0,1.62-.36,2.67,2.67,0,0,0,1.06-1,2.53,2.53,0,0,0,.37-1.32,1.32,1.32,0,0,0-.51-1.13,2.1,2.1,0,0,0-1.33-.39,3.54,3.54,0,0,0-1.7.42A4.36,4.36,0,0,0,270.83,20l-.76-1A4.2,4.2,0,0,1,271.18,18a5.82,5.82,0,0,1,3.18-.95,3.27,3.27,0,0,1,2.26.73,2.47,2.47,0,0,1,.82,1.93,3.62,3.62,0,0,1-.37,1.57,3.79,3.79,0,0,1-1,1.29,3.2,3.2,0,0,1-1.46.67,2,2,0,0,1,1.32.85,2.82,2.82,0,0,1,.48,1.67,4.1,4.1,0,0,1-.66,2.3A4.43,4.43,0,0,1,274,29.62,5.58,5.58,0,0,1,271.39,30.2Z"/><path class="cls-10" d="M282.92,26.79h-5.43l.3-1.4,7.67-8.12h1.08l-1.72,8.08h1.51L286,26.79h-1.51l-.65,3h-1.58Zm.47-1.44,1.21-5.63-5.17,5.63Z"/><path class="cls-11" d="M297.07,26.79h-5.43l.3-1.4,7.67-8.12h1.08L299,25.35h1.51l-.3,1.44h-1.51l-.65,3h-1.59Zm.47-1.44,1.21-5.63-5.17,5.63Z"/><path class="cls-12" d="M301.46,27.55a11,11,0,0,1,.41-1.37,4.7,4.7,0,0,1,.67-1.22,5.87,5.87,0,0,1,1.08-1.1,9.2,9.2,0,0,1,1.63-1.05c.42-.21.84-.43,1.26-.63a12.56,12.56,0,0,0,1.17-.64,2.94,2.94,0,0,0,.85-.73,1.51,1.51,0,0,0,.31-.95,1.34,1.34,0,0,0-.73-1.23,2,2,0,0,0-1-.21,2.89,2.89,0,0,0-.94.15,3,3,0,0,0-.81.38,4.32,4.32,0,0,0-.66.48l-.5.45-.78-1.15a4.93,4.93,0,0,1,.58-.44,7.21,7.21,0,0,1,.95-.57,6.89,6.89,0,0,1,1.26-.49,5.23,5.23,0,0,1,1.5-.21,3.38,3.38,0,0,1,1.57.33,2.29,2.29,0,0,1,1.31,2.1,2.76,2.76,0,0,1-.36,1.43,4.07,4.07,0,0,1-.91,1.07,8.54,8.54,0,0,1-1.15.77c-.39.21-.75.4-1.06.54s-.58.29-.92.48a9,9,0,0,0-1,.64,5.66,5.66,0,0,0-.9.79,3.1,3.1,0,0,0-.61.94h5.73l-.31,1.44Z"/></svg>